<?xml version="1.0" encoding="utf-8"?>
<!-- Generator: Adobe Illustrator 16.0.3, SVG Export Plug-In . SVG Version: 6.00 Build 0)  -->
<!DOCTYPE svg PUBLIC "-//W3C//DTD SVG 1.1//EN" "http://www.w3.org/Graphics/SVG/1.1/DTD/svg11.dtd">
<svg version="1.1" id="Layer_1" xmlns="http://www.w3.org/2000/svg" xmlns:xlink="http://www.w3.org/1999/xlink" x="0px" y="0px"
	 width="300px" height="300px" viewBox="0 0 300 300" enable-background="new 0 0 300 300" xml:space="preserve">
<g>
	<path fill-rule="evenodd" clip-rule="evenodd" d="M8.118,153.088c0,76.471,62.206,138.677,138.667,138.677
		c76.473,0,138.682-62.206,138.682-138.677c0-76.462-62.209-138.682-138.682-138.682C70.324,14.406,8.118,76.626,8.118,153.088z
		 M19.206,153.088c0-70.342,57.237-127.58,127.579-127.58c70.352,0,127.589,57.238,127.589,127.58
		c0,70.352-57.237,127.589-127.589,127.589C76.443,280.677,19.206,223.439,19.206,153.088z"/>
	<g>
		<path d="M80.462,176.538c0,0,19.214-13.901,23.805-23.322c6.822-14.03,24.083-17.459,34.655-19.74l47.987-10.983
			c7.191-1.431,12.608,2.545,15.494,7.65l25.405,56.619c2.479,5.091,0.364,11.229-4.727,13.714
			c-5.096,2.479-11.234,0.368-13.72-4.728l-22.198-39.855l-33.513,4.685c0,0-23.225,3.259-26.638,8.184
			c-4.151,5.992-28.835,26.709-36.778,27.677c-14.493,1.766-24.583,5.171-38.165,5.917c-3.021,0.165-8.15-2.79-9.241-8.77
			c-1.558-8.547,6.201-11.12,9.78-11.72C65.593,179.683,80.462,176.538,80.462,176.538z"/>
		<path d="M220.622,113.667c9.058-5.119,20.551-1.927,25.669,7.125c5.124,9.052,1.937,20.546-7.121,25.666
			c-9.052,5.124-20.55,1.94-25.673-7.122C208.378,130.284,211.57,118.786,220.622,113.667z"/>
	</g>
</g>
</svg>
